<svg width="78" height="78" viewBox="0 0 78 78" fill="none" xmlns="http://www.w3.org/2000/svg">
<path d="M38.7155 0.0789903C60.1072 0.063181 77.4611 17.3902 77.4785 38.7818C77.4943 60.1735 60.1672 77.5289 38.7756 77.5448C17.3824 77.5606 0.0285085 60.2335 0.0126992 38.8419V38.8119C0.0032136 17.4282 17.3318 0.0884759 38.7155 0.0789903Z" fill="#FF3366"/>
<path d="M38.7028 18.3419C50.0064 18.334 59.1759 27.4924 59.1838 38.7976C59.1901 50.1013 50.0333 59.2707 38.7281 59.277C27.4244 59.285 18.255 50.1266 18.2471 38.8229V38.8103C18.2455 27.5098 27.4038 18.3467 38.7028 18.3419Z" fill="#00ADDB"/>
<path d="M67.8283 38.8135C67.8378 32.7601 65.9549 26.8537 62.4405 21.9243L66.2648 18.0953C64.3092 15.4915 61.9963 13.177 59.3956 11.2198L55.565 15.0504C45.4803 7.89198 31.9759 7.88566 21.8864 15.0346L18.0542 11.2009C15.4504 13.1565 13.1359 15.471 11.1787 18.0732L15.0062 21.9022C7.8145 32.0075 7.80186 45.5562 14.973 55.6757L11.1613 59.4889C13.1185 62.0911 15.4314 64.4072 18.0337 66.3644L21.8406 62.5543C31.9506 69.7492 45.5103 69.7429 55.614 62.5385L59.4194 66.347C62.02 64.3851 64.3313 62.069 66.2838 59.462L62.4753 55.6504C65.9676 50.7305 67.8378 44.8447 67.8299 38.8103M18.2613 38.8103C18.2724 27.5145 27.4386 18.3657 38.7344 18.3767C50.0318 18.3878 59.1791 27.5541 59.168 38.8498C59.1585 50.1393 50.0033 59.285 38.7139 59.2834C27.4118 59.2787 18.255 50.1124 18.2597 38.8119" fill="#FFD065"/>
<path d="M38.7045 29.0986C44.0702 29.0939 48.4257 33.4399 48.4304 38.8056C48.4351 44.1713 44.0892 48.5267 38.7235 48.5315C33.3578 48.5362 29.0023 44.1902 28.9976 38.823V38.8135C28.9944 33.4509 33.3388 29.1002 38.7045 29.0986Z" fill="#FFD065"/>
</svg>
